<svg id="Layer_1" xmlns="http://www.w3.org/2000/svg" xmlns:xlink="http://www.w3.org/1999/xlink" viewBox="0 0 382.5 37"><style>.st0{fill:#fff}</style><symbol id="icon-idbar-rit-logo-rit" viewBox="-32.8 -12.5 65.5 25"><path class="st0" d="M2.8-4.9V5c-.1 1.6 0 3.2.3 4.9C3.5 11 5 11 6.1 11h.3v1.6s-3.5-.2-5.8-.2c-2 0-5.6.2-5.6.2V11h.1c1.2 0 2.6 0 3-1.1.4-1.7.6-3.3.5-4.9v-9.9c.1-1.6 0-3.2-.4-4.8-.4-1.1-1.9-1.1-3-1.1H-5v-1.6s4.2.1 5.6.1 5.8-.1 5.8-.1v1.6h-.3c-1.2 0-2.6 0-3 1.1-.3 1.6-.4 3.2-.3 4.8zm18.4-7.4c2.7 0 11.6-.1 11.6-.1V-6h-1.5v-.2c-.2-3.4-1.3-4.4-4.9-4.4h-.5c-.9 0-2 0-2.4.4-.1.1-.2.2-.2.4V7.1c0 2.5.3 3.6 3.9 3.7h.2v1.5s-4.1-.2-5.8-.2c-2.4 0-6.4.2-6.4.2v-1.5h.2c3.5-.1 3.9-1.2 3.9-3.7V-9.7c0-.2-.1-.4-.2-.5-.3-.3-1.2-.3-2.1-.3h-.4c-3.6 0-5.3.2-5.4 4.4v.2H9.7v-6.4c0-.1 8.8 0 11.5 0zM-8.1 10.8v1.5s-2.1-.1-3.5-.1c-.9 0-2.9.1-2.9.1l-1.8-2.2-6.1-7.5c-.2-.2-.4-.3-.5-.5-.7-.8-.8-1-2.2-1v4.2c-.1 1.2 0 2.5.1 3.7.1.3.1.6.2.9.4 1.1 1.7 1.1 2.9 1.1h.3v1.6c0-.1-3.4-.2-5.4-.2-2.3 0-5.8.2-5.8.2V11h.2c1.1 0 2.5 0 2.9-1.1.1-.3.2-.6.2-.9.1-1.3.1-2.7.1-4V-5.2c.1-1.5 0-3.1-.3-4.6-.4-1.1-1.7-1.1-2.9-1.1h-.3v-1.6s4.5.1 6.5.1 3.9-.1 4.7-.1c2-.1 4 .3 5.8 1.2 1.9 1.1 3 3.1 2.8 5.2 0 3.7-2.4 6.2-6.2 6.7L-12 9c.8 1.1 2.1 1.8 3.5 1.8h.4zm-11.4-12c1.4-.7 2-2 2-4.4 0-3.2-1.8-5.1-5-5.1-.8-.1-1.5-.1-2.3 0-.2.2-.2.7-.2 1.1v9s4.1 0 5.5-.6z"/></symbol><symbol id="icon-idbar-rit-logo-text" viewBox="-149 -12.5 298.1 25"><path class="st0" d="M-149-12.5h.4v25h-.4zM-133.1 7h3.4l-3.6-5.9c1.7-.5 2.9-2.2 2.8-4 0-1.2-.5-2.3-1.3-3.1-1-.9-2.3-1.4-3.7-1.3h-6.3V7h3V1.5h2.4l3.3 5.5zm-5.7-11.8h3c1.5 0 2.3.6 2.3 1.9s-.8 2-2.3 2h-3v-3.9zm9 6.7V2c0 3 2.4 5.3 5.4 5.3s5.3-2.4 5.3-5.4v-.1c0-3-2.4-5.3-5.4-5.3s-5.3 2.4-5.3 5.4m8 0c0 2-1 3.3-2.6 3.3-1.7 0-2.6-1.3-2.6-3.3s.9-3.4 2.6-3.4 2.6 1.4 2.6 3.4m3.5 0c0 .1 0 .3-.1.5.1 2.8 2.5 5 5.3 4.9 2.3.2 4.4-1.5 4.6-3.9h-2.6c-.1 1-1.1 1.8-2.1 1.7-1.6 0-2.4-1.3-2.4-3.2s.9-3.2 2.5-3.2c1 0 1.8.7 1.9 1.6h2.7c-.3-2.3-2.4-4-4.7-3.8-3.1 0-5.1 2.3-5.1 5.4m13.8-9.2h-2.7V7h2.7V1c0-1.2.9-2.2 2.1-2.2h.3c.9.1 1.6 1 1.5 1.9V7h2.7V0c0-2-1.6-3.6-3.6-3.5-1.2-.1-2.3.5-3 1.6v-5.4zm7.7 9.2c0 .2 0 .4.1.7.1 2.8 2.5 4.9 5.3 4.8 2.1.1 4.1-1.3 4.6-3.4h-2.7c-.3.9-1.1 1.4-2 1.3h-.1c-1.4 0-2.5-1.2-2.5-2.6h7.4c0-3.7-1.8-6.2-5.1-6.2h-.3c-2.8.2-4.9 2.6-4.7 5.4M-94 .8s0-.1 0 0c0-1.3 1.1-2.3 2.4-2.2h.1c1.2 0 2.1 1 2.1 2.2H-94m8 2.9c.1 2.2 1.8 3.6 4.8 3.6 2.5 0 4.3-1.2 4.3-3.3 0-2.4-1.9-2.9-3.7-3.3-1.4-.3-2.8-.4-2.8-1.3 0-.7.7-1.1 1.8-1.1 1.2 0 1.9.4 2 1.5h2.5c-.2-2.1-1.7-3.4-4.4-3.4-2.4 0-4.2 1.1-4.2 3.3 0 2.3 1.8 2.8 3.6 3.1 1.4.3 2.7.4 2.7 1.4 0 .7-.7 1.2-1.9 1.2-1.1.1-2.1-.6-2.2-1.7H-86m9.6-7v1.8h1.4v6c0 2 1.5 2.5 2.8 2.5h1.7V5h-1.1c-.5-.1-.9-.5-.8-1v-5.5h1.8v-1.8h-1.8v-3.2h-2.7v3.2h-1.4.1zm6.6 5.2c-.1.2-.1.4.1.7.1 2.8 2.5 4.9 5.3 4.8 2.1.1 4.1-1.3 4.6-3.4h-2.7c-.3.9-1.1 1.4-2 1.3h-.1c-1.4 0-2.5-1.2-2.5-2.6h7.4c0-3.7-1.8-6.2-5.1-6.2h-.3c-2.8.2-4.9 2.6-4.7 5.4m2.7-1.1s0-.1 0 0c0-1.3 1.1-2.3 2.4-2.2h.1c1.2 0 2.1 1 2.1 2.2h-4.6m11.2-4.1h-2.6V7h2.7V2c0-2.1 1.3-3.1 3.1-2.9h.1v-2.4c-.2-.1-.4-.1-.6-.1-1.1 0-2.2.7-2.6 1.8l-.1-1.7zm8.1-4h2.9V7h-2.9zm7.6 4h-2.7V7h2.7V1c0-1.2.9-2.2 2.1-2.2h.3c.9.1 1.6 1 1.5 1.9V7h2.7V-.1c-.1-1.9-1.6-3.5-3.6-3.5-1.2 0-2.4.6-3.1 1.7l.1-1.4zm7.6 7c.2 2.2 1.8 3.6 4.7 3.5 2.5 0 4.3-1.2 4.3-3.3 0-2.4-1.9-2.8-3.6-3.2C-28.6.4-30 .3-30-.6c0-.7.7-1.1 1.8-1.1 1.2 0 1.9.4 2 1.5h2.5c-.2-2.1-1.7-3.4-4.4-3.4-2.4 0-4.2 1.1-4.2 3.3s1.8 2.7 3.6 3.1c1.4.3 2.7.4 2.7 1.4 0 .7-.7 1.2-1.9 1.2-1.1.1-2.1-.6-2.2-1.7h-2.5m9.6-7v1.8h1.4v6c0 2 1.5 2.5 2.8 2.5h1.7V5h-1.1c-.5-.1-.9-.5-.8-1v-5.5h1.8v-1.8H-19v-3.2h-2.7v3.2H-23zm7.2-1.6h2.7v-2.4h-2.7v2.4zm0 11.9h2.7V-3.3h-2.7V7zm3.9-8.5h1.4v6c0 2 1.5 2.5 2.8 2.5H-6V5h-1.1c-.5-.1-.8-.5-.8-1v-5.5h1.8v-1.8h-1.8v-3.2h-2.6v3.2h-1.4v1.8zM4.4 7V-3.3H1.7v6.2C1.7 4.1.7 5-.4 5s-1.7-.7-1.7-1.8v-6.4h-2.7v7.4c.1 1.8 1.7 3.2 3.6 3.1 1.2 0 2.3-.5 2.9-1.5h.1V7h2.6zm1.2-8.4H7v6C7 6.5 8.4 7 9.8 7h1.7V5h-1.1c-.5-.1-.9-.5-.8-1v-5.5h1.9v-1.8H9.7v-3.2H7v3.2H5.6v1.9zm6.6 3.3c0 .2 0 .4.1.7.1 2.8 2.5 4.9 5.3 4.8 2.1.1 4.1-1.3 4.6-3.4h-2.7c-.3.9-1.1 1.4-2 1.3h-.1c-1.4 0-2.5-1.2-2.5-2.6h7.4c0-3.7-1.8-6.2-5.1-6.2h-.3c-2.8.2-4.9 2.6-4.7 5.4M14.9.8s0-.1 0 0C15-.5 16-1.5 17.3-1.4h.1c1.2 0 2.1 1 2.1 2.2h-4.6m11.5 1.1V2c0 3 2.4 5.3 5.4 5.3s5.3-2.4 5.3-5.4v-.1c0-3-2.4-5.3-5.4-5.3s-5.3 2.4-5.3 5.4m8 0c0 2-.9 3.3-2.6 3.3-1.7 0-2.6-1.3-2.6-3.3s.9-3.4 2.6-3.4c1.7 0 2.6 1.4 2.6 3.4m3.3-5.2v1.9h1.4V7h2.7v-8.4h1.8v-1.9h-1.8V-4c0-1.1.5-1.3 1.8-1.2v-2.1c-2.7-.3-4.6.6-4.6 3.1v.9h-1.3zm10-1.6H52V7h2.9V-4.9h4.3v-2.4H47.7zm9.9 6.8v.6c.1 2.8 2.5 4.9 5.3 4.8 2.2.2 4.2-1.2 4.7-3.3h-2.7c-.3.9-1.1 1.4-2 1.3h-.1c-1.4 0-2.5-1.2-2.5-2.6h7.4c0-3.7-1.8-6.2-5.1-6.2h-.3c-2.8.2-4.9 2.6-4.7 5.4M60.3.8s0-.1 0 0c.1-1.3 1.1-2.3 2.4-2.2h.1c1.2 0 2.1 1 2.1 2.2h-4.6m8.2 1.1c0 .1 0 .3-.1.5.1 2.8 2.5 5 5.3 4.9 2.3.2 4.4-1.5 4.6-3.9h-2.6c-.1 1-1.1 1.8-2.1 1.7-1.6 0-2.4-1.3-2.4-3.2s.9-3.2 2.5-3.2c1 0 1.8.7 1.9 1.6h2.7c-.3-2.3-2.4-4-4.7-3.8-3.1 0-5.1 2.3-5.1 5.4m13.7-3.8v-5.4h-2.7V7h2.7V1c0-1.2.9-2.2 2.1-2.2h.3c.9.1 1.6 1 1.5 1.9V7h2.8V0c-.1-1.9-1.7-3.5-3.6-3.5-1.2-.1-2.3.5-3.1 1.6zm11-1.4h-2.7V7h2.7V1c0-1.2.9-2.2 2.1-2.2h.3c.9.1 1.6 1 1.5 1.9V7h2.8V-.1c-.1-1.9-1.6-3.5-3.6-3.5-1.2 0-2.4.6-3.1 1.7v-1.4zm7.8 5.2V2c0 3 2.4 5.3 5.4 5.3s5.3-2.4 5.3-5.4v-.1c0-3-2.4-5.3-5.4-5.3S101-1.1 101 1.9m8 0c0 2-1 3.3-2.6 3.3-1.7 0-2.6-1.3-2.6-3.3s.9-3.4 2.6-3.4S109-.1 109 1.9m4-9.2h2.7V7H113zm4 9.2V2c.1 3 2.4 5.3 5.4 5.3s5.3-2.4 5.3-5.4v-.1c0-3-2.4-5.3-5.4-5.3S117-1.1 117 1.9m8 0c0 2-.9 3.3-2.6 3.3s-2.6-1.3-2.6-3.3.9-3.4 2.6-3.4S125-.1 125 1.9m3.7 5.4c.3 2 2 3.2 4.7 3.3 1.3 0 2.7-.4 3.7-1.2.8-.8 1.3-1.9 1.2-3.1v-9.5h-2.6v1.1c-.7-.9-1.7-1.5-2.8-1.4-2.6 0-4.4 1.9-4.4 5v.2c-.1 2.6 2 4.7 4.5 4.7 1.1 0 2.1-.4 2.7-1.2h.1v1.1c0 1.4-.8 2.1-2.3 2.1-1.3 0-1.9-.5-2.1-1.1h-2.7m7.2-5.9c0 1.5-.7 2.8-2.4 2.8-1.4 0-2.3-1.1-2.3-2.8s.9-2.8 2.3-2.8c1.6 0 2.4 1.3 2.4 2.8m4.3 8.9h1.6c2.1 0 2.8-.8 3.6-3.1L149-3.3h-2.7L145 1.3c-.3.9-.6 2.2-.6 2.2s-.4-1.3-.7-2.2l-1.5-4.6h-2.9l2.8 7.3c.4.9.7 1.8.8 2.8 0 .8-.4 1.4-1.5 1.4h-1l-.2 2.1z"/></symbol><title>RIT_hor_w</title><use xlink:href="#icon-idbar-rit-logo-rit" width="65.5" height="25" x="-32.8" y="-12.5" transform="matrix(1 0 0 -1 36.39 18.507)" overflow="visible"/><use xlink:href="#icon-idbar-rit-logo-text" width="298.1" height="25" x="-149" y="-12.5" transform="matrix(1 0 0 -1 225.61 18.515)" overflow="visible"/></svg>